<?xml version="1.0" encoding="UTF-8" standalone="no"?>
<!-- Created with Inkscape (http://www.inkscape.org/) -->

<svg
   xmlns:osb="http://www.openswatchbook.org/uri/2009/osb"
   xmlns:dc="http://purl.org/dc/elements/1.1/"
   xmlns:cc="http://creativecommons.org/ns#"
   xmlns:rdf="http://www.w3.org/1999/02/22-rdf-syntax-ns#"
   xmlns:svg="http://www.w3.org/2000/svg"
   xmlns="http://www.w3.org/2000/svg"
   xmlns:sodipodi="http://sodipodi.sourceforge.net/DTD/sodipodi-0.dtd"
   xmlns:inkscape="http://www.inkscape.org/namespaces/inkscape"
   width="793.6618mm"
   height="168.21046mm"
   viewBox="0 0 793.6618 168.21046"
   version="1.1"
   id="svg8"
   inkscape:version="0.92.4 (5da689c313, 2019-01-14)"
   sodipodi:docname="orlando.svg">
  <defs
     id="defs2">
    <linearGradient
       id="orl"
       osb:paint="solid">
      <stop
         style="stop-color:#000000;stop-opacity:1;"
         offset="0"
         id="stop4544" />
    </linearGradient>
  </defs>
  <sodipodi:namedview
     id="base"
     pagecolor="#ffffff"
     bordercolor="#666666"
     borderopacity="1.0"
     inkscape:pageopacity="0.0"
     inkscape:pageshadow="2"
     inkscape:zoom="0.98994949"
     inkscape:cx="1199.3992"
     inkscape:cy="533.67764"
     inkscape:document-units="mm"
     inkscape:current-layer="layer1"
     showgrid="false"
     fit-margin-top="0"
     fit-margin-left="0"
     fit-margin-right="0"
     fit-margin-bottom="0"
     inkscape:window-width="3840"
     inkscape:window-height="1966"
     inkscape:window-x="0"
     inkscape:window-y="54"
     inkscape:window-maximized="1" />
  <metadata
     id="metadata5">
    <rdf:RDF>
      <cc:Work
         rdf:about="">
        <dc:format>image/svg+xml</dc:format>
        <dc:type
           rdf:resource="http://purl.org/dc/dcmitype/StillImage" />
        <dc:title></dc:title>
      </cc:Work>
    </rdf:RDF>
  </metadata>
  <g
     inkscape:label="Layer 1"
     inkscape:groupmode="layer"
     id="layer1"
     transform="translate(268.9683,-179.47606)">
    <path
       style="fill:#00529b;fill-opacity:1;stroke-width:0.26458335"
       d="m -6.390625,347.42383 c -13.77352,-1.08043 -25.220533,-8.982 -31.050494,-21.43335 -2.268194,-4.8443 -3.271388,-8.70704 -3.785288,-14.57495 -0.702204,-8.01852 0.835766,-15.96747 4.460504,-23.05376 5.094817,-9.96032 13.798868,-16.64188 25.083612,-19.25515 3.7370008,-0.8654 11.66912979,-1.01071 15.8749994,-0.29082 15.6443096,2.67771 27.0819826,13.82249 30.5330496,29.75114 1.536805,7.09315 1.125616,15.72558 -1.080374,22.68143 -4.077864,12.85828 -14.275673,22.35879 -27.1346081,25.27928 -2.3310586,0.52942 -8.9549023,1.28571 -9.9909842,1.14075 -0.1455208,-0.0204 -1.4552083,-0.13042 -2.9104167,-0.24457 z m 9.7386511,-15.44346 c 4.1021264,-1.20466 7.0303229,-3.01358 10.0362549,-6.20003 7.825078,-8.29501 8.761253,-23.49353 2.055362,-33.36838 -2.468668,-3.63531 -6.3786013,-6.70386 -10.3771963,-8.14413 -3.2065913,-1.15499 -5.46486291,-1.48178 -9.1104244,-1.31835 -5.7931576,0.25972 -10.3274543,2.25646 -14.3546243,6.32128 -9.659991,9.75032 -9.46068,28.21055 0.405421,37.54782 3.254269,3.07984 6.609477,4.80383 11.0773894,5.69187 2.8077054,0.55806 7.36332769,0.32287 10.2678177,-0.53008 z M 480.97188,347.26335 c -6.32558,-0.79274 -13.06248,-3.46508 -17.91338,-7.10574 -7.2122,-5.41284 -12.14906,-13.21721 -14.4013,-22.76601 -0.7067,-2.99618 -0.74424,-3.47376 -0.74742,-9.50469 -0.004,-6.87432 0.27059,-8.91266 1.85312,-13.77544 3.64217,-11.19179 12.53873,-20.28893 23.40377,-23.9314 6.65771,-2.23198 14.8449,-2.61151 22.15761,-1.02715 7.11425,1.54136 13.39887,5.07007 18.52658,10.40237 6.37079,6.62499 9.8117,14.53078 10.69001,24.5613 0.38349,4.37975 0.036,9.39608 -0.94853,13.69219 -2.56598,11.19719 -9.51513,20.41221 -19.10554,25.33519 -6.18413,3.17446 -11.26826,4.33192 -18.70543,4.2585 -2.20866,-0.0218 -4.37293,-0.0844 -4.80949,-0.13912 z m 10.87583,-15.19107 c 4.24093,-1.11081 7.47244,-3.06657 10.58063,-6.4036 4.30279,-4.61953 6.45644,-10.56211 6.44438,-17.78177 -0.0132,-7.88164 -2.20382,-13.68285 -6.99876,-18.53397 -2.76796,-2.8004 -5.03809,-4.2428 -8.46667,-5.37954 -6.11497,-2.02743 -12.71375,-1.42085 -18.25516,1.67807 -2.1413,1.1975 -5.60403,4.42232 -7.07999,6.59358 -4.95519,7.2896 -5.96627,17.62557 -2.5669,26.24143 3.04194,7.70994 9.46581,12.87099 17.5833,14.12674 2.21835,0.34317 6.36032,0.0874 8.75917,-0.54094 z M 49.833334,307.88691 V 269.9192 l 18.057812,0.002 c 14.389047,10e-4 18.568485,0.0791 20.571354,0.38329 9.755505,1.48158 16.87523,6.25533 20.51587,13.75579 1.80309,3.71472 2.34633,6.33185 2.33712,11.25936 -0.0106,5.68998 -0.89482,9.24404 -3.31536,13.32639 -2.06759,3.48709 -6.61895,7.51371 -10.366827,9.17157 -0.849842,0.37592 -1.233303,0.70336 -1.233303,1.05312 0,0.27916 3.92906,6.07205 8.73125,12.87308 7.20209,10.19984 8.73125,12.51838 8.73125,13.23838 v 0.87287 l -8.53281,-0.001 -8.532815,-10e-4 -8.560461,-12.56658 -8.560435,-12.56675 H 72.42756 65.179167 v 12.56771 12.56771 H 57.50625 49.833334 Z m 36.644791,-0.76039 c 3.95859,-1.11302 6.437392,-3.03159 7.999439,-6.1915 l 0.996395,-2.01561 -0.0026,-3.45375 c -0.0026,-2.99582 -0.08411,-3.65668 -0.617723,-4.98426 -0.790204,-1.96591 -2.990321,-4.35304 -4.990994,-5.41527 -3.109436,-1.6509 -3.72065,-1.72776 -14.695488,-1.8478 l -9.98802,-0.10924 v 12.14637 c 0,6.68051 0.0893,12.23631 0.198437,12.34622 0.109141,0.10991 4.544219,0.14839 9.855729,0.0855 8.006054,-0.0948 9.928728,-0.19064 11.244792,-0.56067 z m 45.640625,0.76039 V 269.9192 h 7.67184 7.67183 l 0.0672,31.28698 0.0672,31.28698 17.79323,0.068 17.79323,0.068 v 6.61272 6.61272 h -25.5323 -25.53229 z m 62.98108,37.37239 c 0.14491,-0.32742 6.91798,-17.38312 15.05124,-37.90156 l 14.78775,-37.30625 h 8.12625 8.12626 l 15.00788,37.83542 15.00785,37.83542 -8.07664,0.07 c -4.8341,0.0419 -8.13702,-0.0297 -8.22698,-0.17847 -0.0827,-0.13669 -1.33744,-3.47219 -2.78839,-7.41223 l -2.63811,-7.16371 -16.41189,0.002 -16.41192,0.002 -2.73918,7.40596 -2.7392,7.40596 h -8.1692 -8.1692 l 0.26348,-0.59531 z m 49.73142,-26.61445 c 0,-0.17519 -7.58296,-20.65161 -11.02217,-29.76335 -0.37523,-0.99412 -0.77766,-1.70849 -0.89429,-1.5875 -0.18844,0.19546 -11.25445,29.9569 -11.56748,31.1101 -0.11835,0.43593 0.56494,0.46302 11.67913,0.46302 6.49264,0 11.80481,-0.10002 11.80481,-0.22227 z m 38.36459,-10.75794 V 269.9192 l 5.88698,0.0176 5.88697,0.0176 19.84375,24.177 c 10.91407,13.29735 19.93305,24.18366 20.04219,24.1918 0.10914,0.008 0.19844,-10.87943 0.19844,-24.19458 v -24.20938 h 7.54062 7.54063 v 37.96771 37.96771 h -5.8066 -5.8066 l -20.05642,-24.61594 -20.05642,-24.61594 -0.0675,24.61594 -0.0675,24.61594 h -7.53927 -7.53925 v -37.96771 z m 85.19583,0 V 269.9192 h 15.86145 c 12.57597,0 16.48847,0.0822 18.8885,0.39681 17.08163,2.23921 28.80672,12.97088 32.09796,29.37841 0.67831,3.38158 0.68654,12.74619 0.014,16.12999 -3.00548,15.12516 -13.06883,25.48962 -27.96831,28.80511 -4.79774,1.0676 -7.85908,1.22464 -23.87865,1.22488 l -15.01497,2.2e-4 z m 29.23646,24.47616 c 1.60073,-0.14183 3.86291,-0.50263 5.02708,-0.80178 2.89251,-0.74329 7.02281,-2.84597 9.28362,-4.72616 5.90505,-4.91095 8.99306,-13.22395 8.09713,-21.79763 -1.19412,-11.42687 -7.5174,-18.67156 -18.56484,-21.26997 -1.26513,-0.29757 -3.86453,-0.44207 -9.72997,-0.54091 l -8.00365,-0.13486 v 24.59046 c 0,13.52475 0.0794,24.66983 0.1764,24.76684 0.26929,0.2693 10.42271,0.20563 13.71423,-0.086 z m -665.6525,13.02576 c -0.0684,-0.11067 -0.32837,-1.80415 -0.57774,-3.7633 -0.6149,-4.83108 -0.4317,-13.82611 0.37191,-18.2605 1.18977,-6.56521 3.07291,-12.1781 6.13559,-18.28778 12.01188,-23.96218 38.49904,-41.85016 70.62795,-47.69823 3.08349,-0.56125 5.17099,-0.83856 12.23698,-1.62557 l 1.25677,-0.13998 v 6.75599 c 0,3.71579 -0.0706,6.75599 -0.15688,6.75599 -0.51343,0 -5.89405,1.19304 -7.83783,1.73787 -6.02603,1.68907 -12.7376,4.72593 -17.80217,8.05512 -16.39189,10.77522 -26.82343,27.44199 -29.35892,46.90754 -0.52315,4.01639 -0.52667,12.30822 -0.007,16.19218 0.21423,1.60073 0.3905,3.05924 0.39171,3.24114 0.002,0.26129 -3.68885,0.33073 -17.57698,0.33073 -9.66855,0 -17.63513,-0.0905 -17.70353,-0.2012 z m 47.34082,-0.5264 c -0.49453,-2.32489 -0.9427,-6.34426 -0.94405,-8.46667 l -0.002,-2.44739 h 53.20979 53.20979 l -0.18011,2.71198 c -0.18437,2.7762 -0.84281,7.85161 -1.10837,8.54366 -0.12913,0.33649 -6.81252,0.38602 -52.08943,0.38602 h -51.9413 z m 116.09393,0.33586 c 0.0827,-0.21546 0.34774,-2.09069 0.58903,-4.16719 0.57264,-4.92809 0.39163,-12.63569 -0.40824,-17.38325 -1.97896,-11.74586 -6.53588,-21.9796 -13.77919,-30.9447 -2.42032,-2.99565 -7.47342,-8.00847 -10.38416,-10.30138 -7.89071,-6.21585 -17.71003,-10.76728 -27.17573,-12.59642 -1.23693,-0.23902 -2.51685,-0.49205 -2.84427,-0.56229 l -0.59532,-0.12769 v -6.75095 -6.75095 l 1.25677,0.14119 c 0.69123,0.0777 2.4474,0.26665 3.90261,0.42 18.07301,1.90453 36.38759,8.40306 50.66248,17.97647 6.937259,4.65246 14.384264,11.26111 18.969737,16.83421 8.541652,10.38137 13.695886,21.51473 15.607125,33.71204 0.817817,5.21921 0.625705,16.14826 -0.356785,20.29734 l -0.14097,0.59531 h -17.726708 c -15.545129,0 -17.708209,-0.0482 -17.576379,-0.39174 z m -113.41424,-15.94628 c 0.5537,-3.60371 2.87393,-9.20233 5.30088,-12.79078 3.06771,-4.53588 7.53614,-8.78981 12.5502,-11.94776 l 2.41554,-1.52135 h 3.17525 3.17525 l -2.53949,2.61707 c -5.87455,6.05401 -9.275,13.5331 -10.62916,23.37824 l -0.17286,1.25677 h -6.71403 -6.71403 z m 17.01304,0.39688 c 0.002,-1.04822 0.76978,-5.02195 1.41955,-7.34219 1.88315,-6.7244 5.19388,-12.58624 9.73574,-17.23766 l 2.028,-2.07692 h 3.32981 c 1.83139,0 3.32981,0.0419 3.32981,0.0932 0,0.0513 -0.54402,1.39072 -1.20893,2.97657 -1.52984,3.64874 -2.85249,7.9991 -3.68143,12.1087 -0.70675,3.50377 -1.45964,9.14736 -1.45964,10.94123 v 1.13238 h -6.74688 -6.74687 l 7.9e-4,-0.59531 z m 17.04354,0 c 0.0666,-0.32742 0.1934,-1.72641 0.28173,-3.10886 0.47108,-7.37297 2.43963,-15.63453 5.0267,-21.09587 l 1.16154,-2.45204 h 3.45636 3.45637 v 13.62604 13.62604 h -6.75192 -6.75191 z m 17.08687,-13.03073 v -13.62604 h 3.53195 3.53196 l 1.20475,2.57968 c 2.68257,5.74407 4.4461,13.41555 5.10914,22.225 l 0.1842,2.4474 h -6.781 -6.781 z m 17.08497,12.10469 c -0.97608,-9.83269 -2.81027,-17.56966 -5.67655,-23.9448 l -0.80296,-1.78593 h 3.39845 3.39845 l 2.26153,2.37648 c 5.84644,6.14361 9.77624,14.75086 10.84401,23.75112 l 0.13341,1.12448 h -6.70266 -6.70266 z m 16.8258,-0.96843 c -0.61677,-4.59571 -1.95366,-8.95519 -4.05007,-13.20694 -1.7565,-3.56237 -3.62559,-6.18589 -6.47887,-9.09396 l -2.41503,-2.4614 h 3.12846 c 3.11504,0 3.13545,0.004 4.75491,0.95323 4.49889,2.63673 9.47312,7.13963 12.6722,11.47149 2.22041,3.00663 4.60808,7.9316 5.44116,11.22326 1.02074,4.0332 1.73849,3.6041 -6.02857,3.6041 h -6.69004 z m -53.1593,-29.6631 c 0.18686,-1.65776 1.27859,-3.13293 2.92622,-3.95399 l 1.34496,-0.67021 h 13.22597 c 12.87464,0 13.25631,0.0147 14.36816,0.55292 1.36515,0.66086 2.54188,2.01235 2.95621,3.39526 0.617,2.05934 2.3444,1.87265 -17.32719,1.87265 h -17.6292 z m 15.57266,-8.44674 c -1.61235,-0.52341 -3.12686,-2.0745 -3.6082,-3.69535 -0.33524,-1.12888 -0.38965,-7.44027 -0.39466,-45.77753 -0.006,-42.62685 -0.026,-44.51257 -0.49323,-45.54123 -0.26808,-0.59021 -0.98482,-1.49886 -1.59276,-2.01924 -2.07442,-1.77562 -4.73193,-1.95856 -6.94318,-0.47796 -1.93419,1.29509 -2.35555,2.19157 -3.0003,6.38333 -0.36925,2.40058 -2.76788,4.19842 -5.60143,4.19842 -2.11525,0 -3.63717,-0.79243 -4.78673,-2.49238 -0.81212,-1.20094 -0.85989,-1.40377 -0.85989,-3.65089 0,-1.31291 0.18812,-3.10793 0.41972,-4.00499 1.19552,-4.63054 4.84289,-9.12142 9.10528,-11.21098 9.68188,-4.74637 20.87044,-0.17706 24.54976,10.02592 0.64929,1.80051 0.70697,2.31788 0.79895,7.16614 0.0545,2.87403 0.17767,5.22128 0.27365,5.21609 0.096,-0.005 0.88889,-0.18191 1.76201,-0.39274 2.07358,-0.50069 6.22083,-0.49669 8.21264,0.008 4.84029,1.22624 9.29951,4.78779 11.44686,9.14252 2.35831,4.78254 2.50563,9.57989 0.36814,11.98812 -0.73588,0.82909 -2.98846,1.74803 -4.28493,1.74803 -1.29647,0 -3.54905,-0.91894 -4.28493,-1.74803 -0.77697,-0.87538 -1.52406,-2.83332 -1.53009,-4.00999 -0.0212,-4.13936 -4.59114,-7.08923 -8.34246,-5.38504 -1.12476,0.51097 -2.60431,2.01404 -3.12431,3.17397 -0.23334,0.52051 -0.34667,9.26128 -0.44529,34.34376 l -0.1323,33.64554 -0.80549,1.14717 c -1.47558,2.10146 -4.24604,3.01826 -6.70683,2.21942 z m 152.009959,-34.67304 c -6.454008,-1.33648 -11.978905,-4.91847 -15.516172,-10.05969 -3.424185,-4.9769 -5.129186,-12.08596 -4.505643,-18.78651 1.374643,-14.77173 12.337336,-24.39478 26.865845,-23.58285 3.7713702,0.21077 6.8296096,0.96548 9.7895827,2.41589 2.24361369,1.09938 5.4239583,3.32757 5.4239583,3.80007 0,0.16916 -3.35769481,4.8108 -3.80007811,5.25317 -0.058526,0.0585 -0.90146189,-0.49538 -1.87322349,-1.23089 -3.424899,-2.59231 -5.9024838,-3.46578 -10.3426414,-3.64632 -3.782007,-0.15377 -5.5322,0.20098 -8.73588,1.77067 -8.1788,4.00733 -12.305718,14.54977 -9.494917,24.25523 1.050422,3.62699 2.275496,5.69454 5.011526,8.45783 2.594292,2.62014 4.686405,3.85547 8.068548,4.7642 2.268775,0.60958 6.434534,0.61993 8.7312497,0.0217 2.3522778,-0.6127 5.7227255,-2.30824 7.235613,-3.63995 0.68971579,-0.60711 1.29024059,-1.05941 1.33447899,-1.0051 0.044238,0.0543 0.9592997,1.2766 2.03350811,2.7162 l 1.9530483,2.61744 -1.3173869,1.16867 c -1.66399101,1.47614 -5.9670156,3.62049 -8.7257202,4.34834 -2.7571173,0.72744 -9.412128,0.9259 -12.135696,0.36191 z m 183.620831,0.002 c -8.64687,-1.79795 -14.76515,-7.08623 -18.13332,-15.67338 -1.53771,-3.9204 -2.10362,-11.45171 -1.21322,-16.14553 2.50177,-13.1882 12.86177,-21.34293 26.19057,-20.61551 7.94108,0.43339 14.79852,4.11117 18.96978,10.17389 6.16596,8.96192 6.3118,22.61069 0.34023,31.84178 -3.17066,4.90136 -8.20462,8.50797 -14.01834,10.04356 -2.77294,0.73243 -9.42811,0.93818 -12.1357,0.37519 z m 9.60525,-6.64438 c 2.92807,-0.71456 5.40171,-2.06068 7.56791,-4.11836 4.52625,-4.29948 6.41315,-9.29121 6.13296,-16.22445 -0.24694,-6.11043 -1.87868,-10.0642 -5.74792,-13.92748 -3.80619,-3.80035 -7.35237,-5.1358 -13.09542,-4.93157 -3.8282,0.13614 -6.16574,0.85442 -8.93228,2.74471 -5.8724,4.01243 -9.15191,11.94949 -8.15551,19.73786 1.11995,8.75396 5.93698,14.67089 13.63448,16.74765 1.87489,0.50585 6.46885,0.49069 8.59578,-0.0284 z M 14.379167,228.90878 v -25.40001 h 3.439583 3.439584 v 25.40001 25.4 H 17.81875 14.379167 Z m 34.395833,3.175 v -22.22501 h -8.202083 -8.202083 v -3.175 -3.175 h 19.84375 19.84375 v 3.175 3.175 H 63.85625 55.654167 v 22.22501 22.225 H 52.214584 48.775 Z m 46.83125,12.68686 c 0,-7.82891 -0.06898,-9.67152 -0.384889,-10.28244 -0.211693,-0.40937 -4.378881,-7.49225 -9.260417,-15.73974 -4.881536,-8.24749 -8.875527,-15.05039 -8.875527,-15.11756 0,-0.0672 1.756172,-0.11957 3.902604,-0.11645 l 3.902604,0.006 6.138836,10.6438 c 3.376348,5.8541 6.548597,11.52987 7.049426,12.61283 l 0.910617,1.96901 1.194596,-2.36588 c 0.65704,-1.30124 3.814,-6.9498 7.01548,-12.55236 l 5.82089,-10.18646 4.00354,-0.0731 4.00354,-0.0731 -0.37978,0.60227 c -0.20889,0.33124 -4.38089,7.36684 -9.27108,15.63467 l -8.89127,15.03243 v 9.77227 9.77228 H 99.045834 95.60625 Z m 112.18334,-15.86186 v -25.40001 h 17.99166 17.99167 v 3.175 3.175 h -14.55208 -14.55209 v 7.80522 7.80521 h 12.30313 12.30312 v 3.04006 3.04007 l -12.23698,0.0688 -12.23698,0.0688 -0.069,11.31094 -0.069,11.31094 h -3.43672 -3.43675 z"
       id="path34"
       inkscape:connector-curvature="0" />
  </g>
</svg>
