<?xml version="1.0" encoding="UTF-8" standalone="no"?>
<!-- Created with Inkscape (http://www.inkscape.org/) -->

<svg
   xmlns:osb="http://www.openswatchbook.org/uri/2009/osb"
   xmlns:dc="http://purl.org/dc/elements/1.1/"
   xmlns:cc="http://creativecommons.org/ns#"
   xmlns:rdf="http://www.w3.org/1999/02/22-rdf-syntax-ns#"
   xmlns:svg="http://www.w3.org/2000/svg"
   xmlns="http://www.w3.org/2000/svg"
   xmlns:xlink="http://www.w3.org/1999/xlink"
   xmlns:sodipodi="http://sodipodi.sourceforge.net/DTD/sodipodi-0.dtd"
   xmlns:inkscape="http://www.inkscape.org/namespaces/inkscape"
   width="40.212135mm"
   height="38.277172mm"
   viewBox="0 0 40.212135 38.277172"
   version="1.1"
   id="svg8"
   inkscape:version="0.92.4 (5da689c313, 2019-01-14)"
   sodipodi:docname="MainIcon.svg">
  <defs
     id="defs2">
    <linearGradient
       id="linearGradient4640"
       osb:paint="solid">
      <stop
         style="stop-color:#000000;stop-opacity:1;"
         offset="0"
         id="stop4638" />
    </linearGradient>
    <linearGradient
       id="linearGradient4634"
       osb:paint="solid">
      <stop
         style="stop-color:#000000;stop-opacity:1;"
         offset="0"
         id="stop4632" />
    </linearGradient>
    <linearGradient
       id="linearGradient4628"
       osb:paint="solid">
      <stop
         style="stop-color:#000000;stop-opacity:1;"
         offset="0"
         id="stop4626" />
    </linearGradient>
    <linearGradient
       id="linearGradient4622"
       osb:paint="solid">
      <stop
         style="stop-color:#6a4113;stop-opacity:1;"
         offset="0"
         id="stop4620" />
    </linearGradient>
    <linearGradient
       inkscape:collect="always"
       xlink:href="#linearGradient4622"
       id="linearGradient4624"
       x1="107.32299"
       y1="94.538285"
       x2="147.53512"
       y2="94.538285"
       gradientUnits="userSpaceOnUse" />
    <linearGradient
       inkscape:collect="always"
       xlink:href="#linearGradient4622"
       id="linearGradient4630"
       x1="112.2664"
       y1="74.646065"
       x2="115.72621"
       y2="74.646065"
       gradientUnits="userSpaceOnUse" />
    <linearGradient
       inkscape:collect="always"
       xlink:href="#linearGradient4622"
       id="linearGradient4636"
       x1="121.03449"
       y1="74.646065"
       x2="124.4943"
       y2="74.646065"
       gradientUnits="userSpaceOnUse" />
    <linearGradient
       inkscape:collect="always"
       xlink:href="#linearGradient4622"
       id="linearGradient4642"
       x1="129.57092"
       y1="74.427536"
       x2="133.03076"
       y2="74.427536"
       gradientUnits="userSpaceOnUse" />
  </defs>
  <sodipodi:namedview
     id="base"
     pagecolor="#ffffff"
     bordercolor="#666666"
     borderopacity="1.0"
     inkscape:pageopacity="0.0"
     inkscape:pageshadow="2"
     inkscape:zoom="1.1772727"
     inkscape:cx="-36.420541"
     inkscape:cy="31.766802"
     inkscape:document-units="mm"
     inkscape:current-layer="layer1"
     showgrid="false"
     fit-margin-top="0"
     fit-margin-left="0"
     fit-margin-right="0"
     fit-margin-bottom="0"
     inkscape:window-width="1920"
     inkscape:window-height="1016"
     inkscape:window-x="0"
     inkscape:window-y="27"
     inkscape:window-maximized="1" />
  <metadata
     id="metadata5">
    <rdf:RDF>
      <cc:Work
         rdf:about="">
        <dc:format>image/svg+xml</dc:format>
        <dc:type
           rdf:resource="http://purl.org/dc/dcmitype/StillImage" />
        <dc:title></dc:title>
      </cc:Work>
    </rdf:RDF>
  </metadata>
  <g
     inkscape:label="Layer 1"
     inkscape:groupmode="layer"
     id="layer1"
     transform="translate(-107.32299,-65.404171)">
    <path
       style="fill:url(#linearGradient4636);stroke-width:0.34303254;fill-opacity:1.0"
       d="m 121.11403,83.581244 c 0,-0.137148 0.30872,-0.854519 0.68605,-1.594158 0.88263,-1.730096 0.86788,-3.61342 -0.0521,-6.652153 -0.95571,-3.156731 -0.95123,-6.081448 0.013,-8.26051 0.82321,-1.861027 1.23361,-1.952451 0.71963,-0.160316 -0.63585,2.217084 -0.39665,4.180923 0.86345,7.088679 1.37631,3.175943 1.47828,4.449839 0.51542,6.438852 -0.62884,1.299013 -2.74513,3.719413 -2.74513,3.139606 z"
       id="path3724-7"
       inkscape:connector-curvature="0"
       sodipodi:nodetypes="cccccsccc" />
    <path
       style="fill:url(#linearGradient4624);stroke-width:0.2442099;stroke:none;stroke-opacity:1;fill-opacity:1"
       d="m 115.03845,101.95012 -1.06821,-0.67622 c -2.65135,-1.678402 -4.84314,-5.360376 -6.23931,-10.481349 -0.55635,-2.040603 -0.54104,-4.583689 0.03,-4.987669 0.358,-0.25325 3.45496,-0.32232 17.07613,-0.380849 18.63484,-0.08006 18.2984,-0.104949 20.39951,1.508583 3.73328,2.866939 2.77943,7.783474 -1.85012,9.536235 -0.91924,0.348028 -1.65034,0.409999 -4.23334,0.358805 -4.02441,-0.07974 -4.51364,0.08736 -5.64707,1.928831 -0.99743,1.620533 -1.52634,2.706733 -2.62505,3.223103 4.5156,1.99218 -19.62136,2.54099 -15.84254,-0.0295 z m 28.0142,-7.104724 c 3.07822,-1.337858 3.43184,-5.078854 0.65089,-6.885901 -1.41203,-0.91753 -3.8277,-1.047471 -5.15829,-0.277471 -0.8223,0.475855 -0.97166,0.722656 -1.34196,2.217447 -0.22917,0.925099 -0.50425,2.001488 -0.61127,2.391975 -0.16599,0.605601 -0.0667,0.834104 0.67558,1.554298 0.47859,0.464378 1.22957,0.977732 1.66884,1.14079 1.17904,0.43767 2.92195,0.377906 4.11621,-0.141138 z"
       id="path3724-5"
       inkscape:connector-curvature="0"
       sodipodi:nodetypes="csccsccccccccccccccc" />
    <path
       sodipodi:nodetypes="cccccsccc"
       inkscape:connector-curvature="0"
       id="path3786"
       d="m 129.65047,83.362711 c 0,-0.137148 0.30873,-0.854519 0.68606,-1.594159 0.88263,-1.730095 0.86788,-3.613419 -0.0521,-6.652152 -0.95572,-3.156731 -0.95123,-6.081448 0.013,-8.26051 0.82322,-1.861027 1.23361,-1.952451 0.71964,-0.160316 -0.63586,2.217084 -0.39665,4.180923 0.86344,7.088679 1.37632,3.175943 1.47829,4.449839 0.51543,6.438852 -0.62884,1.299012 -2.74513,3.719413 -2.74513,3.139606 z"
       style="fill:url(#linearGradient4642);stroke-width:0.34303254;fill-opacity:1.0" />
    <path
       style="fill:url(#linearGradient4630);stroke-width:0.34303254;fill-opacity:1.0"
       d="m 112.34594,83.581245 c 0,-0.137148 0.30872,-0.854519 0.68605,-1.594158 0.88263,-1.730095 0.86788,-3.61342 -0.0521,-6.652153 -0.95571,-3.156731 -0.95123,-6.081448 0.013,-8.260509 0.82321,-1.861028 1.23361,-1.952452 0.71963,-0.160317 -0.63585,2.217085 -0.39665,4.180923 0.86345,7.088679 1.37631,3.175943 1.47828,4.44984 0.51542,6.438852 -0.62884,1.299013 -2.74513,3.719413 -2.74513,3.139606 z"
       id="path3794"
       inkscape:connector-curvature="0"
       sodipodi:nodetypes="cccccsccc" />
  </g>
</svg>
