<?xml version="1.0" encoding="UTF-8" standalone="no"?>
<!-- Created with Inkscape (http://www.inkscape.org/) -->

<svg
   width="135.19601mm"
   height="135.19118mm"
   viewBox="0 0 135.19601 135.19118"
   version="1.1"
   id="svg5"
   inkscape:version="1.1.2 (0a00cf5339, 2022-02-04)"
   sodipodi:docname="mocha-logo.svg"
   xmlns:inkscape="http://www.inkscape.org/namespaces/inkscape"
   xmlns:sodipodi="http://sodipodi.sourceforge.net/DTD/sodipodi-0.dtd"
   xmlns:xlink="http://www.w3.org/1999/xlink"
   xmlns="http://www.w3.org/2000/svg"
   xmlns:svg="http://www.w3.org/2000/svg">
  <sodipodi:namedview
     id="namedview7"
     pagecolor="#ffffff"
     bordercolor="#666666"
     borderopacity="1.0"
     inkscape:pageshadow="2"
     inkscape:pageopacity="0.0"
     inkscape:pagecheckerboard="0"
     inkscape:document-units="mm"
     showgrid="false"
     fit-margin-top="0"
     fit-margin-left="0"
     fit-margin-right="0"
     fit-margin-bottom="0"
     inkscape:zoom="0.46087226"
     inkscape:cx="-367.78087"
     inkscape:cy="-103.06543"
     inkscape:window-width="1850"
     inkscape:window-height="1016"
     inkscape:window-x="70"
     inkscape:window-y="27"
     inkscape:window-maximized="1"
     inkscape:current-layer="layer1" />
  <defs
     id="defs2">
    <linearGradient
       id="linearGradient4656"
       inkscape:swatch="solid">
      <stop
         style="stop-color:#527535;stop-opacity:1;"
         offset="0"
         id="stop4654" />
    </linearGradient>
    <linearGradient
       id="linearGradient4650"
       inkscape:swatch="solid">
      <stop
         style="stop-color:#387535;stop-opacity:1;"
         offset="0"
         id="stop4648" />
    </linearGradient>
    <linearGradient
       id="linearGradient4644"
       inkscape:swatch="solid">
      <stop
         style="stop-color:#357557;stop-opacity:1;"
         offset="0"
         id="stop4642" />
    </linearGradient>
    <linearGradient
       id="linearGradient4638"
       inkscape:swatch="solid">
      <stop
         style="stop-color:#ffffff;stop-opacity:1;"
         offset="0"
         id="stop4636" />
    </linearGradient>
    <linearGradient
       inkscape:collect="always"
       xlink:href="#linearGradient4638"
       id="linearGradient4646"
       x1="79.065994"
       y1="38.105801"
       x2="91.578545"
       y2="38.105801"
       gradientUnits="userSpaceOnUse" />
    <linearGradient
       inkscape:collect="always"
       xlink:href="#linearGradient4638"
       id="linearGradient4652"
       x1="63.258274"
       y1="37.788788"
       x2="81.481255"
       y2="37.788788"
       gradientUnits="userSpaceOnUse" />
    <linearGradient
       inkscape:collect="always"
       xlink:href="#linearGradient4638"
       id="linearGradient4658"
       x1="52.786793"
       y1="38.102142"
       x2="65.445854"
       y2="38.102142"
       gradientUnits="userSpaceOnUse" />
    <linearGradient
       inkscape:collect="always"
       xlink:href="#linearGradient4638"
       id="linearGradient4660"
       gradientUnits="userSpaceOnUse"
       x1="33.698291"
       y1="93.547474"
       x2="103.69704"
       y2="93.547474" />
  </defs>
  <g
     inkscape:label="Layer 1"
     inkscape:groupmode="layer"
     id="layer1"
     transform="translate(-2.8131675,-2.5599857)">
    <path
       style="fill:#755b35;fill-opacity:1;stroke-width:0.0851373"
       d="m 66.92613,137.66459 c -0.11241,-0.045 -0.897802,-0.11709 -1.745318,-0.16032 -0.847515,-0.0432 -1.847431,-0.12117 -2.222037,-0.17324 -0.374602,-0.0521 -1.121684,-0.15324 -1.660178,-0.22483 -0.538494,-0.0716 -1.170639,-0.16806 -1.404769,-0.21438 -0.234127,-0.0463 -0.770491,-0.13811 -1.191922,-0.20396 -0.947321,-0.14803 -1.800017,-0.31328 -2.852103,-0.55272 -0.444844,-0.10124 -0.962056,-0.2131 -1.149357,-0.24858 -0.187302,-0.0355 -0.647044,-0.1511 -1.02165,-0.25694 -0.374605,-0.10585 -0.836565,-0.22345 -1.026578,-0.26134 -0.190011,-0.0379 -0.439039,-0.10477 -0.553393,-0.14863 -0.114351,-0.0439 -0.418629,-0.13773 -0.676171,-0.2086 -0.709237,-0.19519 -3.921746,-1.25101 -4.227169,-1.38931 -0.147552,-0.0668 -0.309079,-0.12148 -0.358945,-0.12148 -0.04987,0 -0.21648,-0.0536 -0.370252,-0.11912 -0.153772,-0.0655 -0.451987,-0.18642 -0.662705,-0.26869 -0.210713,-0.0823 -0.622668,-0.25855 -0.915452,-0.39172 -0.292787,-0.13316 -0.574212,-0.24212 -0.625397,-0.24212 -0.05118,0 -0.194747,-0.0516 -0.319038,-0.11478 -0.124287,-0.0631 -0.370207,-0.17702 -0.546487,-0.2531 -0.176281,-0.0761 -0.444461,-0.19285 -0.595961,-0.25949 -0.320254,-0.14087 -2.08532,-0.97095 -2.281821,-1.0731 -0.07334,-0.0381 -0.653421,-0.33846 -1.289073,-0.66741 -0.635649,-0.32894 -1.312387,-0.69698 -1.503858,-0.81785 -0.191475,-0.12087 -0.371971,-0.21977 -0.401104,-0.21977 -0.192936,0 -4.535518,-2.73572 -5.782326,-3.64272 -0.280955,-0.20439 -0.603046,-0.43575 -0.715762,-0.51417 -0.462133,-0.32146 -2.355351,-1.75819 -2.434325,-1.84736 -0.04682,-0.0529 -0.257539,-0.22606 -0.468256,-0.38487 -0.369387,-0.2784 -1.050671,-0.85103 -2.211531,-1.85882 -0.890486,-0.77306 -3.064497,-2.83905 -3.652439,-3.47094 -0.298589,-0.32092 -0.83616,-0.88997 -1.194609,-1.26458 -0.358449,-0.3746 -0.867186,-0.93012 -1.130526,-1.23449 -1.078846,-1.24692 -1.695674,-1.98181 -1.914278,-2.28071 -0.127103,-0.17379 -0.273381,-0.35429 -0.325065,-0.40112 -0.137773,-0.12483 -1.373302,-1.75325 -2.002477,-2.63926 -1.494482,-2.10454 -3.212567,-4.8223 -4.332617,-6.85356 -0.527393,-0.95645 -2.3370859,-4.646049 -2.6934269,-5.491369 -0.05922,-0.14047 -0.175454,-0.40866 -0.258299,-0.59596 -0.214462,-0.48486 -0.338775,-0.78556 -0.545548,-1.31963 -0.23253,-0.6006 -0.288726,-0.73926 -0.458348,-1.13096 -0.07673,-0.17718 -0.139743,-0.36874 -0.140032,-0.42568 -2.87e-4,-0.057 -0.04888,-0.19932 -0.107993,-0.31638 -0.05911,-0.11707 -0.313149,-0.84499 -0.564529,-1.61761 -0.2513812,-0.77263 -0.5041932,-1.53886 -0.5618042,-1.70275 -0.05761,-0.16389 -0.169732,-0.52785 -0.249157,-0.80881 -0.07943,-0.28095 -0.184174,-0.62576 -0.232772,-0.76624 -0.0486,-0.14047 -0.10547,-0.35119 -0.126379,-0.46825 -0.02092,-0.11707 -0.09143,-0.4044 -0.156719,-0.63853 -0.409728,-1.46938 -0.936037,-3.86022 -1.15262,-5.23595 -0.04792,-0.30437 -0.141245,-0.84073 -0.207396,-1.19193 -0.124027,-0.65844 -0.309349,-1.93772 -0.474837,-3.27779 -0.05204,-0.421429 -0.129841,-1.501494 -0.172886,-2.400143 -0.04304,-0.898653 -0.115976,-1.894759 -0.16207,-2.213575 -0.109756,-0.759106 -0.11132,-5.030404 -0.0023,-5.83074 0.04678,-0.342872 0.1206,-1.351331 0.164053,-2.241019 0.04345,-0.889685 0.122476,-1.962416 0.175608,-2.383847 0.194303,-1.541117 0.356431,-2.659455 0.512221,-3.533204 0.08766,-0.491669 0.223701,-1.257906 0.302305,-1.702747 0.07861,-0.444844 0.195899,-0.997741 0.260648,-1.228662 0.06475,-0.230922 0.117729,-0.514892 0.117729,-0.631048 0,-0.116156 0.05495,-0.406118 0.122112,-0.644363 0.06717,-0.238242 0.182098,-0.672619 0.255412,-0.965277 0.410793,-1.639816 0.80636,-3.062798 1.03622,-3.72761 0.0653,-0.188868 0.118968,-0.399582 0.119254,-0.468256 2.9e-4,-0.06867 0.05415,-0.227637 0.119683,-0.353253 0.06554,-0.125616 0.146796,-0.354231 0.180576,-0.508031 0.03378,-0.153798 0.09329,-0.338361 0.1322512,-0.410137 0.03896,-0.07178 0.165717,-0.41784 0.281689,-0.76903 0.115969,-0.351193 0.29281,-0.849246 0.392976,-1.106789 0.100164,-0.257539 0.213028,-0.564034 0.250805,-0.681097 0.09727,-0.301414 0.448087,-1.140338 0.652636,-1.560658 0.06451,-0.132567 0.117298,-0.276132 0.117298,-0.319038 0,-0.200639 1.595613,-3.58317 2.4868449,-5.271848 1.299432,-2.462123 3.190776,-5.529883 4.802765,-7.790077 0.166981,-0.234126 0.470464,-0.659699 0.674407,-0.945712 0.203944,-0.286014 0.447409,-0.611664 0.541034,-0.723669 0.09362,-0.112002 0.505254,-0.625072 0.914728,-1.140154 1.371323,-1.725001 2.12586,-2.59979 3.47854,-4.03293 2.352229,-2.492142 4.903755,-4.87568 6.981271,-6.52163 0.234127,-0.185489 0.444841,-0.360569 0.468254,-0.38906 0.02342,-0.02851 0.463999,-0.364276 0.979081,-0.746186 0.515081,-0.381914 0.974823,-0.72587 1.021649,-0.764349 0.460546,-0.378444 3.433652,-2.414834 3.788507,-2.594885 0.0703,-0.03567 0.229892,-0.131447 0.354652,-0.212845 0.58142,-0.379326 2.815514,-1.70896 3.348937,-1.993136 0.836018,-0.445381 4.528634,-2.2840178 4.587092,-2.2840178 0.02655,0 0.250425,-0.09299 0.497542,-0.206637 0.904524,-0.416003 3.112274,-1.315784 3.982501,-1.62309 0.491669,-0.173626 0.970566,-0.349472 1.064217,-0.390769 0.254991,-0.112442 2.167981,-0.722529 3.362928,-1.0725 0.257543,-0.07543 0.612703,-0.189064 0.789244,-0.252529 0.176544,-0.06346 0.401275,-0.115387 0.499398,-0.115387 0.09813,0 0.375111,-0.06161 0.615526,-0.13692 0.86565,-0.271154 1.209642,-0.360653 1.586468,-0.412762 0.210714,-0.02915 0.498053,-0.08796 0.638529,-0.130701 0.670723,-0.204095 2.875822,-0.609939 5.533934,-1.018511 0.327781,-0.05039 0.995801,-0.131483 1.484493,-0.180219 0.48869,-0.04874 0.914896,-0.10491 0.947119,-0.124825 0.03223,-0.01992 0.692218,-0.0721 1.466654,-0.115976 0.774432,-0.04387 1.485487,-0.121204 1.580119,-0.171849 0.214807,-0.114959 6.115711,-0.123933 6.606846,-0.01004 0.184949,0.04289 0.970342,0.101158 1.745318,0.129491 2.843888,0.103976 7.635954,0.807749 11.02958,1.61983 0.32778,0.07843 0.809024,0.191427 1.069433,0.251091 0.26041,0.05966 0.605215,0.148356 0.766237,0.197096 0.161022,0.04874 0.513325,0.148842 0.782886,0.222459 0.945297,0.258154 1.470682,0.412267 1.766024,0.518042 0.163889,0.0587 0.930126,0.312396 1.702747,0.56378 0.772624,0.25138 1.500547,0.505419 1.617613,0.564526 0.117063,0.05911 0.272567,0.107706 0.345562,0.107996 0.07299,2.9e-4 0.207081,0.05677 0.297981,0.125523 0.09089,0.06875 0.2292,0.126218 0.307357,0.127704 0.07815,0.0016 0.25055,0.05713 0.383117,0.123638 0.13256,0.06651 0.413428,0.184978 0.624142,0.263257 0.517228,0.192147 1.017967,0.399836 1.830457,0.759215 0.1873,0.08285 0.45548,0.199745 0.59596,0.25977 0.4564,0.19502 4.241185,2.0763248 4.810275,2.3910418 0.47423,0.262266 1.76814,0.999726 2.23082,1.271465 1.48786,0.873824 4.28477,2.751667 5.81466,3.903962 0.77082,0.58057 2.6506,2.074893 2.85366,2.268502 0.0737,0.07024 0.34152,0.30011 0.59523,0.510824 1.17371,0.974779 2.07797,1.817632 3.83324,3.572896 2.16857,2.168576 2.46037,2.492927 5.10883,5.678715 0.26274,0.316042 1.98208,2.607896 2.29045,3.053129 2.59966,3.75349 4.74195,7.487617 6.34834,11.065484 0.12614,0.280955 0.30752,0.683227 0.40307,0.893944 0.55128,1.215689 1.19798,2.843406 1.72509,4.342009 0.17293,0.491669 0.34554,0.970567 0.38357,1.064217 0.038,0.09365 0.15357,0.457612 0.25677,0.808806 0.10319,0.351193 0.22685,0.734309 0.2748,0.851373 0.048,0.117066 0.11639,0.346936 0.15209,0.510824 0.0357,0.163892 0.10697,0.422497 0.15838,0.574679 0.0514,0.152182 0.13576,0.40121 0.18741,0.553393 0.0516,0.152182 0.12557,0.456131 0.16424,0.675437 0.0387,0.219308 0.11137,0.475397 0.1615,0.569083 0.0502,0.09369 0.0912,0.271153 0.0912,0.394375 0,0.123223 0.0366,0.292453 0.0814,0.37607 0.0809,0.151114 0.2413,0.829026 0.48521,2.050349 0.0701,0.35119 0.18217,0.906713 0.24896,1.23449 0.2128,1.044325 0.59557,3.382795 0.71769,4.38458 0.0485,0.398016 0.14312,1.164252 0.21021,1.702747 0.0671,0.538494 0.14268,1.508038 0.16795,2.154544 0.0253,0.646507 0.0845,1.247397 0.1315,1.335317 0.11796,0.220396 0.11576,6.766529 -0.002,6.987199 -0.0483,0.09033 -0.10686,0.672065 -0.13003,1.292748 -0.0418,1.120291 -0.1971,2.683917 -0.42063,4.236027 -0.0641,0.44485 -0.13978,1.00037 -0.16825,1.2345 -0.0285,0.23412 -0.0882,0.61724 -0.13276,0.85137 -0.0445,0.23413 -0.15928,0.86627 -0.25496,1.40477 -0.0957,0.53849 -0.22662,1.20895 -0.29096,1.4899 -0.0643,0.28096 -0.17993,0.79817 -0.25686,1.14936 -0.25146,1.1479 -0.78449,3.17585 -0.99581,3.78861 -0.0484,0.14048 -0.11888,0.38951 -0.15652,0.5534 -0.0376,0.16389 -0.10975,0.41291 -0.16024,0.55339 -0.0505,0.14048 -0.28745,0.84925 -0.52655,1.57504 -0.2391,0.7258 -0.48888,1.44036 -0.55507,1.58791 -0.0662,0.14756 -0.12155,0.31996 -0.12304,0.38312 -0.002,0.0632 -0.059,0.18921 -0.12771,0.2801 -0.0687,0.0909 -0.125,0.23146 -0.125,0.31237 0,0.0809 -0.0544,0.25557 -0.12093,0.38813 -0.0665,0.13256 -0.18498,0.41343 -0.26325,0.62414 -0.17357,0.46721 -0.31004,0.79959 -0.4894,1.19193 -0.40799,0.89247 -0.65889,1.46392 -0.65889,1.50068 0,0.0577 -1.91957,3.913569 -2.15622,4.331229 -0.10612,0.18731 -0.334,0.59638 -0.50637,0.90907 -0.83814,1.52029 -2.25698,3.76675 -3.71283,5.8785 -0.38969,0.56526 -2.13871,2.89767 -2.22014,2.96067 -0.0303,0.0234 -0.27002,0.31075 -0.53278,0.63853 -1.80964,2.2573 -3.7778,4.35991 -6.53724,6.98384 -1.66038,1.57883 -4.55514,3.9445 -6.51273,5.32236 -0.69452,0.48885 -2.8384,1.93336 -3.24146,2.18405 -0.26234,0.16316 -3.46708,2.06952 -3.65467,2.17399 -0.45188,0.25167 -3.476375,1.76069 -4.001455,1.99647 -0.32779,0.14718 -0.86415,0.38722 -1.19193,0.53343 -0.32778,0.14621 -0.7109,0.31749 -0.85137,0.38063 -0.14048,0.0631 -0.56191,0.23733 -0.936515,0.38709 -0.374606,0.14978 -0.796034,0.3253 -0.936513,0.39006 -0.140476,0.0648 -0.361133,0.14247 -0.49034,0.1727 -0.129211,0.0302 -0.255992,0.089 -0.281728,0.13064 -0.02574,0.0416 -0.111574,0.0759 -0.190751,0.0762 -0.07919,0 -0.246743,0.0541 -0.372356,0.11968 -0.12562,0.0655 -0.355492,0.14635 -0.510825,0.17958 -0.155342,0.0332 -0.320746,0.0877 -0.367571,0.12107 -0.107095,0.0763 -0.665681,0.27138 -1.489906,0.52036 -0.351193,0.10609 -0.964183,0.29712 -1.362198,0.42449 -0.398018,0.12737 -0.972697,0.29584 -1.277061,0.37438 -0.304368,0.0785 -0.744955,0.19415 -0.979081,0.25693 -1.061016,0.28449 -2.088174,0.5286 -2.937243,0.69807 -0.35119,0.0701 -0.906713,0.18327 -1.234491,0.25151 -2.378962,0.49525 -6.229427,1.00602 -8.297477,1.10067 -0.630263,0.0289 -1.212001,0.0878 -1.292748,0.13103 -0.196736,0.10529 -6.694962,0.0922 -6.960542,-0.014 z"
       id="path301" />
    <path
       style="fill:url(#linearGradient4646);fill-opacity:1.0;stroke-width:0.0851373"
       d="m 82.838366,58.351093 c 0,-0.213649 -0.06295,-0.795644 -0.139887,-1.293321 -0.108446,-0.701492 -0.141934,-1.584181 -0.14899,-3.927248 -0.0093,-3.074582 0.04503,-3.772631 0.393989,-5.065678 0.05055,-0.187301 0.120092,-0.493796 0.154544,-0.681101 0.03445,-0.187301 0.110493,-0.47464 0.16898,-0.638529 0.05848,-0.163888 0.154051,-0.432072 0.212371,-0.595961 0.301761,-0.848014 0.521993,-1.328128 1.171598,-2.554123 0.550748,-1.039424 1.537345,-2.37569 2.927824,-3.965508 1.464727,-1.67471 2.083908,-2.561234 2.671203,-3.824568 0.5557,-1.195359 0.609575,-1.364035 1.155587,-3.618341 0.230577,-0.951993 0.230629,-5.129531 7.7e-5,-6.300171 -0.189586,-0.962602 -0.473382,-2.180685 -0.564546,-2.423097 -0.03591,-0.09548 -0.151818,-0.460933 -0.257574,-0.812123 -0.10576,-0.351193 -0.225124,-0.674929 -0.265256,-0.719411 -0.04013,-0.04449 -0.07296,-0.129414 -0.07296,-0.18873 0,-0.167763 -0.832916,-1.872315 -1.261916,-2.582495 -0.502523,-0.831886 -1.193351,-1.745317 -1.319993,-1.745317 -0.111062,0 -0.09633,0.434807 0.02886,0.851376 0.04221,0.140476 0.115409,0.581063 0.162653,0.979078 0.175556,1.478926 0.266584,2.188678 0.365802,2.852106 0.134577,0.899924 0.131469,4.31128 -0.0048,5.235951 -0.321574,2.182487 -0.910298,3.84774 -1.987399,5.621519 -0.596186,0.981803 -0.95218,1.515963 -1.273918,1.911469 -0.557225,0.68499 -1.238181,1.496515 -1.465917,1.746991 -1.885157,2.07342 -3.132695,4.072847 -3.824733,6.129895 -0.57396,1.706067 -0.595362,1.870612 -0.597917,4.597421 -0.0016,1.56638 0.03484,2.703795 0.09649,3.022379 0.227041,1.173401 0.273216,1.384012 0.401336,1.830455 0.07391,0.257542 0.165574,0.526981 0.203702,0.598757 0.03812,0.07178 0.09777,0.263334 0.132544,0.425688 0.03478,0.162351 0.09087,0.333499 0.124664,0.380324 0.03379,0.04683 0.150406,0.334164 0.259138,0.638529 0.261504,0.731993 1.116674,2.501676 1.645653,3.405499 0.777213,1.327971 0.908773,1.430506 0.908773,0.708285 z"
       id="path3998" />
    <path
       style="fill:url(#linearGradient4658);fill-opacity:1.0;stroke-width:0.0851373"
       d="m 56.701176,58.493622 c 0,-0.18761 -0.06241,-0.733554 -0.138697,-1.213208 -0.209423,-1.316804 -0.214234,-6.648352 -0.0071,-7.895939 0.187105,-1.12708 0.39601,-2.108494 0.50743,-2.383847 0.04737,-0.117063 0.116857,-0.32778 0.154412,-0.468256 0.242444,-0.906813 1.16783,-2.824855 1.910014,-3.958889 0.465421,-0.711145 2.078009,-2.751309 2.422599,-3.064947 0.141016,-0.128352 0.969373,-1.145316 1.352284,-1.660182 0.24377,-0.327777 0.474711,-0.635755 0.513199,-0.684392 0.03849,-0.04864 0.272476,-0.508379 0.519966,-1.021649 0.247494,-0.513271 0.483129,-0.999289 0.523638,-1.08004 0.16654,-0.33197 0.604839,-1.814861 0.749276,-2.535009 0.272766,-1.359971 0.323568,-5.120554 0.08523,-6.308737 -0.05071,-0.252828 -0.122063,-0.670401 -0.158553,-0.927944 -0.11409,-0.805226 -0.786168,-3.170085 -0.954513,-3.35867 -0.03971,-0.04449 -0.0722,-0.13535 -0.0722,-0.201927 0,-0.167653 -0.805445,-1.795241 -1.27357,-2.573539 -0.481842,-0.801101 -1.2021,-1.783645 -1.307515,-1.783645 -0.08665,0 -0.04964,0.442691 0.142343,1.70275 0.06777,0.444844 0.166305,1.134455 0.218954,1.532474 0.05265,0.398015 0.136673,1.011005 0.186716,1.362198 0.13916,0.976593 0.191298,3.851421 0.0857,4.725129 -0.138455,1.145502 -0.261803,1.927776 -0.349034,2.213571 -0.04288,0.140479 -0.159712,0.523596 -0.259631,0.851376 -0.09992,0.327777 -0.236147,0.716686 -0.302723,0.864241 -0.06658,0.147552 -0.121047,0.302547 -0.121047,0.34443 0,0.06977 -0.511397,1.094628 -0.90503,1.813705 -0.472182,0.862575 -1.501972,2.266562 -2.49784,3.4055 -1.964064,2.246215 -2.827967,3.440612 -3.510036,4.852833 -1.346202,2.787301 -1.782403,6.496827 -1.13127,9.620528 0.06345,0.304368 0.140785,0.687485 0.171866,0.851376 0.127627,0.672986 0.803135,2.678221 1.190235,3.533201 0.0636,0.140479 0.136995,0.312882 0.163094,0.38312 0.0261,0.07024 0.0833,0.185174 0.127109,0.255412 0.04381,0.07024 0.160877,0.300111 0.260146,0.510825 0.09927,0.210714 0.214337,0.440587 0.255705,0.510825 0.04137,0.07024 0.275742,0.472513 0.520829,0.893941 0.789048,1.356795 0.928047,1.490601 0.928047,0.893385 z"
       id="path3996" />
    <path
       style="fill:url(#linearGradient4652);fill-opacity:1.0;stroke-width:0.0851373"
       d="m 68.839066,66.858934 c -0.03066,-0.45655 -0.09333,-1.02262 -0.139263,-1.257941 -0.09757,-0.499837 -0.202811,-2.091199 -0.345652,-5.226903 -0.102029,-2.239738 -0.06075,-3.563416 0.180773,-5.796229 0.250913,-2.319694 0.939701,-4.835277 1.888216,-6.896132 0.588979,-1.279684 0.809639,-1.707937 1.337975,-2.596694 0.715891,-1.204262 1.909769,-2.92359 2.21693,-3.192652 0.02674,-0.02343 0.200546,-0.234127 0.386261,-0.468257 0.185715,-0.234126 0.360975,-0.444844 0.389465,-0.468256 0.02848,-0.02343 0.335513,-0.368219 0.682272,-0.766237 0.346756,-0.398015 0.669549,-0.765877 0.71732,-0.817467 0.04777,-0.05159 0.259257,-0.29709 0.469971,-0.545555 0.210714,-0.248468 0.443673,-0.512752 0.517682,-0.587302 0.286175,-0.288253 1.173587,-1.531067 1.586166,-2.221409 1.357609,-2.271604 2.290856,-5.168548 2.619267,-8.130625 0.180985,-1.632367 0.179456,-5.283703 -0.0029,-6.55558 -0.146828,-1.024977 -0.334937,-2.084831 -0.475982,-2.681831 -0.102516,-0.433907 -0.298521,-1.258591 -0.404696,-1.70275 -0.34579,-1.446526 -1.79344,-4.963126 -2.428954,-5.900367 -0.101473,-0.149653 -0.212879,-0.329563 -0.247567,-0.399801 -0.32074,-0.6494758 -1.922499,-2.8238568 -2.030861,-2.7568848 -0.105657,0.0653 -0.08201,0.683143 0.05331,1.392741 0.280018,1.4683938 0.537397,3.1965578 0.646953,4.3439518 0.04248,0.444844 0.123718,1.096145 0.180534,1.447338 0.06534,0.403878 0.105132,1.686644 0.108272,3.490635 0.0041,2.360483 -0.02175,3.020867 -0.15,3.831185 -0.242702,1.533426 -0.732109,3.498252 -1.070917,4.299441 -0.03961,0.09365 -0.138249,0.342675 -0.219212,0.553392 -0.08096,0.210714 -0.277107,0.654799 -0.435879,0.986852 -0.158769,0.332057 -0.288675,0.625806 -0.288675,0.652781 0,0.04369 -0.64314,1.183939 -0.851943,1.510451 -0.04492,0.07024 -0.236073,0.376733 -0.424793,0.681101 -0.449111,0.724325 -1.072304,1.595655 -1.605579,2.244877 -0.235864,0.287149 -0.555426,0.682288 -0.710141,0.878087 -0.154712,0.1958 -0.876733,1.038659 -1.604485,1.873023 -1.676109,1.921653 -2.093215,2.472124 -3.278331,4.32656 -0.344513,0.53908 -1.034756,1.896789 -1.341769,2.639263 -0.545123,1.318294 -1.106547,3.245452 -1.251994,4.2976 -0.04221,0.305378 -0.115918,0.804258 -0.163786,1.108626 -0.04787,0.304364 -0.0878,1.621378 -0.08874,2.926695 -0.0016,2.322268 0.04426,2.911433 0.349343,4.480261 0.05008,0.25754 0.124568,0.64066 0.16552,0.851374 0.04096,0.210714 0.112356,0.517208 0.15867,0.6811 0.04631,0.163889 0.166903,0.604475 0.267978,0.979078 0.101074,0.374606 0.236691,0.801826 0.301372,0.949381 0.06468,0.147552 0.117603,0.328234 0.117603,0.401513 0,0.07328 0.0536,0.259048 0.119113,0.41282 0.06551,0.153772 0.180448,0.442411 0.255413,0.641419 0.406526,1.079209 0.647526,1.63377 1.156204,2.660545 0.542388,1.094828 1.373509,2.526647 2.003366,3.451325 0.192594,0.282744 0.375339,0.579659 0.406095,0.659814 0.03076,0.08015 0.118865,0.145734 0.195792,0.145734 0.123978,0 0.133532,-0.09429 0.08413,-0.830091 z"
       id="path3994" />
    <path
       id="path3990"
       style="fill:url(#linearGradient4660);fill-opacity:1;stroke-width:0.0851373"
       d="m 85.945882,113.78313 c 1.8262,-0.0255 3.550232,-0.0842 3.831184,-0.13053 0.280955,-0.0463 0.664072,-0.10375 0.851377,-0.12764 0.730027,-0.0931 3.082706,-0.66266 4.554853,-1.10267 0.257539,-0.077 0.640656,-0.19108 0.851373,-0.25356 0.461606,-0.1369 1.530706,-0.50552 2.000726,-0.68985 0.1873,-0.0735 0.47464,-0.18238 0.63853,-0.24206 0.48965,-0.17831 1.511595,-0.59133 2.000735,-0.8086 0.0936,-0.0416 0.38099,-0.16892 0.63854,-0.28291 0.46429,-0.20553 1.36257,-0.64216 1.80511,-0.87745 0.29517,-0.15692 0.57873,-0.51748 0.57873,-0.73587 0,-0.0937 -0.10535,-0.27049 -0.23413,-0.39292 -0.2311,-0.21973 -0.25007,-0.22253 -1.46862,-0.21652 -0.67897,0.003 -1.82832,0.0527 -2.554125,0.10956 -1.58705,0.12444 -3.951481,0.23826 -7.279249,0.35042 -1.357943,0.0458 -3.38847,0.12666 -4.512285,0.17976 -3.248793,0.1535 -5.84457,0.21175 -5.893577,0.13226 -0.04448,-0.0721 0.382399,-0.47108 0.510464,-0.47704 0.03612,-0.002 0.323462,-0.20324 0.638529,-0.44791 2.625661,-2.03892 4.23014,-3.66824 6.124355,-6.21921 1.067335,-1.43738 1.611091,-2.277179 2.520658,-3.892989 0.427422,-0.7593 1.308994,-2.53024 1.600523,-3.21519 0.190111,-0.44666 0.376723,-0.87334 0.414703,-0.94818 0.03798,-0.0748 0.126746,-0.28932 0.197257,-0.47662 0.129928,-0.34511 0.437504,-1.13589 0.562943,-1.44734 0.108057,-0.26826 0.568735,-1.7241 0.767804,-2.42641 0.09955,-0.3512 0.234059,-0.81094 0.298911,-1.02165 0.06485,-0.21072 0.180917,-0.6513 0.257931,-0.97908 0.07701,-0.32778 0.195253,-0.79089 0.262778,-1.02913 0.06751,-0.23825 0.122759,-0.51659 0.122759,-0.61854 0,-0.10195 0.05445,-0.40507 0.120989,-0.67361 0.110287,-0.44511 0.208107,-0.99747 0.478487,-2.70183 0.052,-0.32778 0.12682,-0.96165 0.16626,-1.4086 0.0395,-0.44695 0.11069,-1.09825 0.15832,-1.44734 0.1062,-0.77832 0.22866,-5.505764 0.15068,-5.816477 l -0.0563,-0.224445 H 70.792794 c -25.938083,0 -26.261368,0.0019 -26.349024,0.16582 -0.04881,0.0912 -0.112864,0.522212 -0.142342,0.957798 -0.02948,0.435583 -0.08904,0.837067 -0.132364,0.892181 -0.04332,0.05512 -0.335001,0.123486 -0.648176,0.151935 -0.724686,0.06583 -2.641116,0.518962 -3.080963,0.728479 -1.362751,0.649138 -1.874444,0.933414 -2.445924,1.358855 -0.811051,0.603794 -1.704604,1.537764 -2.250129,2.351924 -0.615367,0.91838 -1.322876,2.4828 -1.516893,3.35409 -0.03649,0.16389 -0.108385,0.47038 -0.159757,0.68109 -0.382718,1.56981 -0.485568,4.2445 -0.223785,5.81972 0.394077,2.37127 0.975809,4.17097 1.737686,5.37586 0.118434,0.1873 0.254427,0.40751 0.302212,0.48935 0.535347,0.91693 1.948528,2.64907 3.087086,3.78386 0.80902,0.806339 2.206585,1.984389 2.354153,1.984389 0.02384,0 0.213381,0.11476 0.421222,0.25504 0.35024,0.23637 0.950954,0.55187 1.67394,0.87917 0.163889,0.0742 0.547009,0.21437 0.851374,0.3115 0.304368,0.0971 0.679858,0.21704 0.834428,0.26646 0.15457,0.0494 0.499379,0.12364 0.766237,0.1649 0.266861,0.0413 0.753385,0.11792 1.081165,0.17034 0.36467,0.0583 1.796806,0.0937 3.690149,0.0911 l 3.094191,-0.004 1.162682,1.16917 c 1.196388,1.20305 1.672241,1.64813 2.482433,2.32185 0.690864,0.5745 1.973093,1.52631 2.056163,1.52631 0.03968,0 0.07215,0.0635 0.07215,0.14118 0,0.15459 -0.470782,0.14979 -5.406226,-0.0552 -1.17064,-0.0486 -3.354417,-0.1263 -4.852834,-0.17261 -3.445963,-0.10649 -5.853619,-0.21901 -7.534664,-0.35212 -0.725796,-0.0575 -1.900593,-0.10677 -2.610657,-0.10956 -1.252403,-0.005 -1.297613,9.6e-4 -1.511188,0.20133 -0.290058,0.27193 -0.284938,0.594 0.01397,0.87865 0.209468,0.19948 1.833987,1.08596 1.990076,1.08596 0.03444,0 0.323903,0.1176 0.643243,0.26133 1.011883,0.45544 1.083604,0.48626 1.47456,0.6335 0.210717,0.0794 0.457123,0.18334 0.547572,0.23106 0.09045,0.0477 0.262851,0.11803 0.38312,0.15622 0.120265,0.0382 0.601782,0.20831 1.070038,0.37806 0.468256,0.16975 1.004621,0.34557 1.191925,0.39072 0.187301,0.0451 0.398018,0.1067 0.468256,0.13679 0.19154,0.082 0.834545,0.27385 1.362198,0.40634 2.469354,0.62003 2.938566,0.72607 3.599973,0.81358 0.291056,0.0385 0.835687,0.11577 1.210293,0.17169 0.374602,0.0559 1.907076,0.13206 3.405496,0.16919 2.780173,0.0689 24.979235,0.031 30.990024,-0.0528 z M 47.548901,99.784741 c -0.421431,-0.0824 -0.996106,-0.23307 -1.277061,-0.33473 -0.280952,-0.10166 -0.625761,-0.21553 -0.766237,-0.25305 -0.259566,-0.0693 -1.079003,-0.45578 -1.710028,-0.80646 -1.772805,-0.98521 -4.084689,-3.58213 -5.270346,-5.92013 -0.476082,-0.9388 -0.655779,-1.60512 -0.897169,-3.32671 -0.19968,-1.42412 -0.205868,-2.12381 -0.03083,-3.48701 0.346933,-2.70206 1.526749,-4.60721 3.509872,-5.66771 0.939595,-0.50246 2.022337,-0.80636 2.872909,-0.80636 h 0.546517 l 0.0019,0.48954 c 0.0013,0.26924 0.03982,0.65313 0.08595,0.85307 0.04612,0.19994 0.122408,0.73631 0.169513,1.19192 0.08348,0.80748 0.141161,1.17404 0.391573,2.48858 0.425891,2.23572 0.776344,3.60692 1.512285,5.91705 0.550665,1.72853 0.696134,2.12162 1.543852,4.17173 0.334873,0.80986 1.505696,3.19988 1.814259,3.70348 0.100418,0.16389 0.217456,0.3746 0.260085,0.46825 0.04263,0.0937 0.234664,0.43786 0.426744,0.76489 0.192082,0.32704 0.349239,0.62395 0.349239,0.65981 0,0.131109 -2.741356,0.0487 -3.533203,-0.10616 z" />
  </g>
</svg>
